<?xml version="1.0" encoding="utf-8"?>
<!-- Generator: Adobe Illustrator 24.0.2, SVG Export Plug-In . SVG Version: 6.00 Build 0)  -->
<svg version="1.1" id="Layer_1" xmlns="http://www.w3.org/2000/svg" xmlns:xlink="http://www.w3.org/1999/xlink" x="0px" y="0px"
	 viewBox="0 0 1200 1003" style="enable-background:new 0 0 1200 1003;" xml:space="preserve">
<style type="text/css">
	.st0{fill:url(#SVGID_1_);}
	.st1{fill:#FFFFFF;}
</style>
<linearGradient id="SVGID_1_" gradientUnits="userSpaceOnUse" x1="-2679.8982" y1="746.1029" x2="-2679.8982" y2="-149.0818" gradientTransform="matrix(-1 0 0 -1 -2079.8982 800)">
	<stop  offset="0" style="stop-color:#0ED4FC"/>
	<stop  offset="1" style="stop-color:#0C57EF"/>
</linearGradient>
<circle class="st0" cx="600" cy="501.5" r="447.6"/>
<path class="st1" d="M598.9,258.9l16.5-28.5c10.2-17.8,32.9-23.8,50.7-13.6c17.8,10.2,23.8,32.9,13.6,50.7L520.8,542.6h114.9
	c37.3,0,58.1,43.8,41.9,74.1h-337c-20.6,0-37.1-16.5-37.1-37.1s16.5-37.1,37.1-37.1h94.5l120.9-209.6l-37.8-65.6
	c-10.2-17.8-4.2-40.3,13.6-50.7c17.8-10.2,40.3-4.2,50.7,13.6L598.9,258.9z M456,654.9l-35.6,61.8c-10.2,17.8-32.9,23.8-50.7,13.6
	c-17.8-10.2-23.8-32.9-13.6-50.7l26.5-45.8C412.4,624.5,436.7,631.7,456,654.9L456,654.9z M762.8,542.8h96.4
	c20.6,0,37.1,16.5,37.1,37.1c0,20.6-16.5,37.1-37.1,37.1h-53.6l36.1,62.7c10.2,17.8,4.2,40.3-13.6,50.7
	c-17.8,10.2-40.3,4.2-50.7-13.6c-60.9-105.6-106.6-184.6-136.9-237.2c-31.1-53.6-8.9-107.3,13-125.5
	C677.9,395.7,714.3,458.7,762.8,542.8L762.8,542.8z"/>
</svg>
