<?xml version="1.0" encoding="utf-8"?>
<!-- Generator: Adobe Illustrator 24.0.2, SVG Export Plug-In . SVG Version: 6.00 Build 0)  -->
<svg version="1.1" id="Layer_1" xmlns="http://www.w3.org/2000/svg" xmlns:xlink="http://www.w3.org/1999/xlink" x="0px" y="0px"
	 viewBox="0 0 1491.6 802.6" style="enable-background:new 0 0 1491.6 802.6;" xml:space="preserve">
<style type="text/css">
	.st0{fill:#FFFFFF;}
	.st1{fill:none;stroke:#FFFFFF;stroke-width:3;stroke-miterlimit:10;}
</style>
<g>
	<path class="st0" d="M613.9,223.6l-83.4,48.6l-13.2-70.6l80.4-65.2L613.9,223.6z M773.3,126l-80.4,46.1L674.2,65.2L754.6,0
		L773.3,126z M878.2,218.3l-86.3,29.4l-18.6-121.1l82.4-45.1L878.2,218.3z"/>
	<path class="st0" d="M986.6,343.8l-89.8,8.3l-19.6-140.3l86.8-20.6L986.6,343.8z M814.5,364.4l-86.8,17.2l-16.7-105l83.9-35.3
		L814.5,364.4z"/>
	<path class="st0" d="M920.9,489l-89.7-2.4L813,363.4l86.8-14.7L920.9,489z M711.5,277.6l-82.9,33.3l-15.2-88.3l80.9-51.5
		L711.5,277.6z M645.3,400.2l-86.3,15.7l-14.7-70.6l84.9-32.9L645.3,400.2z"/>
	<path class="st0" d="M746.8,488h-87.3l-15.7-89.3l85.3-16.7L746.8,488z M573.7,487l-88.8-3.9l-12.8-55.9l86.3-12.8L573.7,487z
		 M546.7,345.3l-84.4,29.9l-14.2-58.9l82.9-43.6L546.7,345.3z"/>
	<path class="st0" d="M474.1,429.6l-87.3,5.4L376,392.8l85.8-18.2L474.1,429.6z"/>
</g>
<path class="st0" d="M304.5,540.7H324v38.4h0.4c1.9-3.4,4-6.5,5.9-9.5l19.7-28.9h24.1l-28.8,37l30.3,49.9h-23l-21.3-37.5l-7.5,9.2
	v28.4h-19.5L304.5,540.7z M504.1,590.9h-32v20.6h35.7v16.1h-55.5v-86.9H506v16.1h-33.9v18h32V590.9z M589.9,541.8
	c6.3-1,15.7-1.8,26.2-1.8c12.9,0,21.9,1.9,28.1,6.8c5.2,4.1,8,10.2,8,18.2c0,11.1-7.9,18.7-15.3,21.4v0.4c6.1,2.4,9.4,8.3,11.6,16.3
	c2.7,9.8,5.4,21.1,7.1,24.5h-20.1c-1.4-2.4-3.5-9.5-6.1-20.2c-2.3-10.8-6.1-13.8-14.1-13.9h-5.9v34.2h-19.5V541.8z M609.4,579.3h7.7
	c9.8,0,15.6-4.9,15.6-12.5c0-8-5.4-12-14.4-12.1c-4.8,0-7.5,0.4-8.9,0.6V579.3z M756.4,605.3l-6.2,22.3h-20.4l26.6-86.9h25.8
	l26.9,86.9H788l-6.7-22.3H756.4z M778.5,590.6l-5.4-18.4c-1.5-5.2-3.1-11.6-4.4-16.8h-0.2c-1.3,5.2-2.6,11.7-4,16.8l-5.2,18.4H778.5
	z M889.5,540.7h19.7v70.4h34.6v16.5h-54.3L889.5,540.7z M1045,605.3l-6.2,22.3h-20.4l26.6-86.9h25.8l26.9,86.9h-21.1l-6.7-22.3H1045
	z M1067.1,590.6l-5.4-18.4c-1.5-5.2-3.1-11.6-4.4-16.8h-0.3c-1.3,5.2-2.6,11.7-4,16.8l-5.2,18.4H1067.1z"/>
<path class="st0" d="M36.6,774.5c6.9,3.5,17.4,7,28.3,7c11.7,0,17.9-4.8,17.9-12.2c0-7-5.4-11-18.9-15.9
	c-18.7-6.5-30.9-16.9-30.9-33.3c0-19.2,16.1-33.9,42.6-33.9c12.7,0,22.1,2.7,28.8,5.7l-5.7,20.6c-7.3-3.6-15.4-5.4-23.6-5.4
	c-11,0-16.4,5-16.4,10.9c0,7.2,6.4,10.4,20.9,15.9c19.9,7.3,29.3,17.7,29.3,33.6c0,18.9-14.5,35-45.5,35c-12.9,0-25.6-3.3-31.9-6.9
	L36.6,774.5z M145.9,709.4h-30.3V688h86.6v21.4h-30.8v91.3h-25.6V709.4z M228.2,771.8l-8,28.9h-26.4L228.2,688h33.5l35,112.7h-27.4
	l-8.7-28.9H228.2z M256.8,752.7l-7-23.9c-2-6.7-4-15-5.7-21.7h-0.3c-1.7,6.7-3.3,15.2-5.2,21.7l-6.7,23.9H256.8z M309.8,689.5
	c8.2-1.3,20.4-2.4,34-2.4c16.7,0,28.4,2.5,36.5,8.9c6.7,5.4,10.4,13.2,10.4,23.6c0,14.4-10.2,24.3-19.9,27.8v0.5
	c7.9,3.2,12.2,10.7,15.1,21.1c3.5,12.7,7,27.4,9.2,31.8h-26.1c-1.8-3.2-4.5-12.4-7.9-26.3c-3-14-7.9-17.9-18.2-18.1H335v44.3h-25.3
	L309.8,689.5z M335,738h10c12.7,0,20.2-6.4,20.2-16.2c0-10.4-7-15.6-18.7-15.7c-6.2,0-9.7,0.5-11.5,0.8L335,738z M428.8,709.4h-30.3
	V688h86.6v21.4h-30.8v91.3h-25.6V709.4z M522.3,688v64.9c0,19.4,7.4,29.3,20.4,29.3c13.4,0,20.7-9.4,20.7-29.3V688h25.4v63.2
	c0,34.8-17.6,51.3-47,51.3c-28.4,0-45.2-15.7-45.2-51.7V688L522.3,688z M609,689.5c7.9-1.3,18.9-2.4,34.5-2.4c15.7,0,26.9,3,34.5,9
	c7.2,5.7,12,15,12,26.1c0,11-3.7,20.4-10.4,26.8c-8.7,8.2-21.6,11.9-36.6,11.9c-3.3,0-6.4-0.2-8.7-0.5v40.3H609L609,689.5z
	 M634.3,740.7c2.2,0.5,4.8,0.7,8.5,0.7c13.5,0,21.9-6.9,21.9-18.4c0-10.4-7.2-16.5-19.9-16.5c-5.2,0-8.7,0.5-10.5,1V740.7z
	 M831.6,757.6c-0.6-15.4-1-30.9-1-46.3h-0.5c-3.6,14.7-7.8,29.3-12.5,43.7l-13.7,44h-19.9l-12-43.6c-4-14.5-7.5-29.2-10.2-44h-0.3
	c-0.7,15.2-1.2,32.6-2,46.7l-2,42.8h-23.6l7.2-112.7h33.9l11,37.6c3.5,13.1,7,27.1,9.5,40.3h0.5c3.2-13.1,7-27.9,10.7-40.5l12-37.5
	H852l6.2,112.7h-24.9L831.6,757.6z M901.4,688v112.7h-25.6V688H901.4z M922.5,774.5c6.9,3.5,17.4,7,28.3,7
	c11.7,0,17.9-4.8,17.9-12.2c0-7-5.4-11-18.9-15.9c-18.7-6.5-30.9-16.9-30.9-33.3c0-19.2,16.1-33.9,42.6-33.9
	c12.7,0,22.1,2.7,28.8,5.7l-5.7,20.6c-7.3-3.6-15.4-5.4-23.6-5.4c-11,0-16.4,5-16.4,10.9c0,7.2,6.4,10.4,20.9,15.9
	c19.9,7.3,29.3,17.7,29.3,33.6c0,18.9-14.6,35-45.5,35c-12.9,0-25.6-3.3-32-6.9L922.5,774.5z M1010.9,774.5c6.9,3.5,17.4,7,28.3,7
	c11.7,0,17.9-4.8,17.9-12.2c0-7-5.4-11-18.9-15.9c-18.7-6.5-31-16.9-31-33.3c0-19.2,16.1-33.9,42.7-33.9c12.7,0,22.1,2.7,28.8,5.7
	l-5.7,20.6c-4.5-2.2-12.5-5.4-23.6-5.4s-16.4,5-16.4,10.9c0,7.2,6.3,10.4,20.9,15.9c19.9,7.3,29.3,17.7,29.3,33.6
	c0,18.9-14.5,35-45.5,35c-12.9,0-25.6-3.3-31.9-6.9L1010.9,774.5z M1124.1,688v112.7h-25.6V688H1124.1z M1247.5,743.2
	c0,37-22.4,59.4-55.4,59.4c-33.5,0-53-25.3-53-57.4c0-33.8,21.6-59,54.9-59C1228.6,686.2,1247.5,712.1,1247.5,743.2z M1166.1,744.7
	c0,22.1,10.4,37.6,27.4,37.6c17.2,0,27.1-16.4,27.1-38.3c0-20.2-9.7-37.6-27.3-37.6C1176.1,706.4,1166.1,722.8,1166.1,744.7
	L1166.1,744.7z M1262.4,800.7V688h29.8l23.4,41.3c7,12.5,13.1,25.4,18.4,38.6h0.5c-1.7-14.9-2.2-30.1-2.2-47v-33h23.4v112.7H1329
	l-24.1-43.5c-6.7-12-14-26.6-19.6-39.8l-0.5,0.2c0.7,14.9,1,30.8,1,49.2v34H1262.4z"/>
<circle class="st1" cx="1419.6" cy="724.5" r="38.4"/>
<path class="st0" d="M1405.7,745.3v-38.2h16.9c3.4,0,6,0.3,7.8,1c1.8,0.7,3.2,1.9,4.3,3.6c1.1,1.7,1.6,3.7,1.6,5.8
	c0,2.7-0.9,5-2.6,6.9c-1.8,1.9-4.5,3-8.1,3.5c1.3,0.6,2.4,1.3,3.1,1.9c1.5,1.4,2.9,3.1,4.2,5.1l6.6,10.4h-6.4l-5.1-8
	c-1.5-2.3-2.7-4-3.6-5.3c-1-1.2-1.8-2.1-2.6-2.6c-0.7-0.5-1.5-0.8-2.3-1c-0.9-0.2-1.9-0.2-2.8-0.2h-5.9v17L1405.7,745.3
	L1405.7,745.3z M1410.8,723.9h10.9c2.3,0,4.1-0.2,5.4-0.7c1.2-0.4,2.3-1.2,3-2.3c0.7-1,1-2.2,1-3.4c0-1.8-0.7-3.3-2-4.5
	c-1.3-1.2-3.4-1.7-6.2-1.7h-12.1V723.9z"/>
</svg>
