<?xml version="1.0" encoding="UTF-8"?>
<!DOCTYPE svg PUBLIC "-//W3C//DTD SVG 1.1//EN" "http://www.w3.org/Graphics/SVG/1.1/DTD/svg11.dtd">
<!-- Creator: CorelDRAW 2019 (64-Bit) -->
<svg xmlns="http://www.w3.org/2000/svg" xml:space="preserve" width="31.6737mm" height="15.4176mm" version="1.1" style="shape-rendering:geometricPrecision; text-rendering:geometricPrecision; image-rendering:optimizeQuality; fill-rule:evenodd; clip-rule:evenodd"
viewBox="0 0 356.42 173.49"
 xmlns:xlink="http://www.w3.org/1999/xlink">
 <defs>
  <style type="text/css">
   <![CDATA[
    .fil2 {fill:#35499A;fill-rule:nonzero}
    .fil0 {fill:url(#id0)}
    .fil1 {fill:url(#id1)}
   ]]>
  </style>
  <linearGradient id="id0" gradientUnits="userSpaceOnUse" x1="80.09" y1="198.25" x2="179.66" y2="5.32">
   <stop offset="0" style="stop-opacity:1; stop-color:#ECC025"/>
   <stop offset="0.541176" style="stop-opacity:1; stop-color:#ED7D29"/>
   <stop offset="1" style="stop-opacity:1; stop-color:#EE392E"/>
  </linearGradient>
  <linearGradient id="id1" gradientUnits="userSpaceOnUse" x1="209.11" y1="17.3" x2="132.97" y2="176.47">
   <stop offset="0" style="stop-opacity:1; stop-color:#80D0EB"/>
   <stop offset="0.541176" style="stop-opacity:1; stop-color:#529ECF"/>
   <stop offset="1" style="stop-opacity:1; stop-color:#246BB2"/>
  </linearGradient>
 </defs>
 <g id="Layer_x0020_1">
  <metadata id="CorelCorpID_0Corel-Layer"/>
  <path class="fil0" d="M122.01 58.02l-28.86 71.23 -18.59 -7.24 22.22 51.48 51.89 -21.22 -18.35 -7.84 23.75 -57.77 -6.21 -27.16 -38.71 87.35c1.2,1.09 1.66,2.86 1,4.47l0 0c-0.84,2.04 -3.18,3.03 -5.22,2.19l0 0c-2.05,-0.84 -3.03,-3.18 -2.21,-5.22l0 0c0.64,-1.59 2.19,-2.53 3.81,-2.48l0 0 42.15 -95.11 7.21 31.51 19.14 -46.56c-5.04,-2.05 -10.23,-3.03 -15.35,-3.03l0 0c-16.06,0 -31.28,9.59 -37.7,25.41l0 0z"/>
  <path class="fil1" d="M162.94 21.23l18.35 7.84 -23.75 57.77 6.17 28.88 38.75 -89.08c-1.21,-1.09 -1.66,-2.86 -1.01,-4.46l0 0c0.85,-2.04 3.19,-3.03 5.22,-2.19l0 0c2.05,0.84 3.03,3.18 2.21,5.22l0 0c-0.64,1.58 -2.19,2.53 -3.81,2.48l0 0 -42.19 96.83 -7.18 -33.24 -19.15 46.57c5.04,2.05 10.23,3.03 15.35,3.03l0 0c13.99,0 27.35,-7.28 34.8,-19.62l0 0c1.1,-1.82 2.07,-3.75 2.9,-5.79l0 0 13.8 -34.08 2.37 -5.85 0.4 -0.97 12.28 -30.33 18.58 7.25 -22.21 -51.48 -51.89 21.23z"/>
  <path class="fil2" d="M28.95 68.01c0,-5.4 -3.64,-9.81 -9.81,-9.81 -6.17,0 -9.81,4.41 -9.81,9.81 0,5.4 3.99,9.81 9.81,9.81 5.82,0 9.81,-4.41 9.81,-9.81zm-28.95 31.68l0 -48.99 7.99 0 0.56 4.77c2.66,-3.85 7.29,-5.54 11.21,-5.54 10.65,0 17.73,7.92 17.73,18.08 0,10.09 -6.38,18.08 -17.45,18.08 -3.65,0 -9.04,-1.12 -11.5,-4.91l0 18.5 -8.55 0z"/>
  <path class="fil2" d="M50.46 67.94c0,6.59 4.56,10.51 10.23,10.51 13.46,0 13.46,-20.96 0,-20.96 -5.68,0 -10.23,3.85 -10.23,10.44zm20.75 -17.24l8.2 0 0 34.55 -8.06 0 -0.42 -5.05c-1.96,4.07 -7.36,6.03 -11.21,6.1 -10.23,0.07 -17.8,-6.24 -17.8,-18.36 0,-11.92 7.92,-18.15 18.01,-18.08 4.63,0 9.04,2.17 11,5.61l0.28 -4.77z"/>
  <polygon class="fil2" points="119.99,50.7 98.89,99.69 89.5,99.69 95.95,84.69 82.14,50.7 92.09,50.7 97.35,65.63 100.65,75.37 104.22,65.84 110.53,50.7 "/>
  <path class="fil2" d="M222.55 117.37c-5.4,0 -10.03,-3.92 -10.03,-10.16 0,-6.02 4.63,-10.09 10.03,-10.09 5.47,0 9.81,3.86 9.81,10.09 0,6.03 -4.34,10.16 -9.81,10.16zm0.77 -28.25c-3.65,0 -9.32,1.96 -11.35,5.54l0 -19.13 -1.11 0 -7.45 18.67 0 30.31 8 0 0.56 -4.76c2.66,4.14 6.94,5.54 11.14,5.54 10.17,0 17.8,-6.73 17.8,-18.08 0,-11.91 -7.49,-18.08 -17.59,-18.08z"/>
  <path class="fil2" d="M264.11 117.72c-5.68,0 -10.23,-3.93 -10.23,-10.51 0,-6.59 4.55,-10.44 10.23,-10.44 13.46,0 13.46,20.95 0,20.95zm10.51 -27.75l-0.28 4.76c-1.96,-3.43 -6.37,-5.61 -11,-5.61 -10.1,-0.07 -18.01,6.17 -18.01,18.08 0,12.12 7.56,18.44 17.8,18.37 3.86,-0.07 9.24,-2.03 11.21,-6.1l0.42 5.04 8.07 0 0 -34.55 -8.21 0z"/>
  <path class="fil2" d="M314.71 114.5c-2.1,2.1 -4.83,2.87 -7.56,2.87 -5.33,0 -9.82,-3.51 -9.82,-10.09 0,-6.02 4.21,-10.23 9.96,-10.23 2.38,0 4.9,0.91 6.94,2.73l5.4 -5.67c-3.79,-3.72 -7.57,-5.12 -12.48,-5.12 -10.03,0 -18.37,6.03 -18.37,18.3 0,12.26 8.34,18.29 18.37,18.29 5.12,0 9.31,-1.54 13.31,-5.47l-5.75 -5.61z"/>
  <polygon class="fil2" points="340.36,106.24 354.45,90.47 354.45,89.97 344.22,89.97 332.58,103.85 332.58,75.53 324.03,75.53 324.03,124.52 332.58,124.52 332.58,108.89 346.11,124.52 356.42,124.52 356.42,123.9 "/>
 </g>
</svg>
