<?xml version="1.0" encoding="UTF-8"?>
<!DOCTYPE svg PUBLIC "-//W3C//DTD SVG 1.1//EN" "http://www.w3.org/Graphics/SVG/1.1/DTD/svg11.dtd">
<!-- Creator: CorelDRAW 2019 (64-Bit) -->
<svg xmlns="http://www.w3.org/2000/svg" xml:space="preserve" width="69.0725mm" height="32.7992mm" version="1.1" style="shape-rendering:geometricPrecision; text-rendering:geometricPrecision; image-rendering:optimizeQuality; fill-rule:evenodd; clip-rule:evenodd"
viewBox="0 0 2192.73 1041.22"
 xmlns:xlink="http://www.w3.org/1999/xlink">
 <defs>
  <style type="text/css">
   <![CDATA[
    .fil2 {fill:white;fill-rule:nonzero}
    .fil1 {fill:url(#id0)}
    .fil0 {fill:url(#id1)}
   ]]>
  </style>
  <linearGradient id="id0" gradientUnits="userSpaceOnUse" x1="1270.27" y1="111.04" x2="813.26" y2="1066.5">
   <stop offset="0" style="stop-opacity:1; stop-color:#81CFEA"/>
   <stop offset="0.541176" style="stop-opacity:1; stop-color:#559ECE"/>
   <stop offset="1" style="stop-opacity:1; stop-color:#296DB1"/>
  </linearGradient>
  <linearGradient id="id1" gradientUnits="userSpaceOnUse" x1="459.88" y1="1179.15" x2="1057.37" y2="21.04">
   <stop offset="0" style="stop-opacity:1; stop-color:#EBBE22"/>
   <stop offset="0.541176" style="stop-opacity:1; stop-color:#EC7D28"/>
   <stop offset="1" style="stop-opacity:1; stop-color:#EE3B2F"/>
  </linearGradient>
 </defs>
 <g id="Layer_x0020_1">
  <metadata id="CorelCorpID_0Corel-Layer"/>
  <g id="_1829636195120">
   <path class="fil0" d="M960.02 195.75l-1.45 0c-96.4,0 -187.75,57.53 -226.27,152.51l0 0 -173.19 427.51 -111.55 -43.48 133.29 308.93 311.48 -127.37 -110.13 -47.07 142.53 -346.69 -37.28 -162.97 -232.28 524.27c7.18,6.5 9.96,17.14 6.03,26.8l0 0c-5.04,12.19 -19.11,18.16 -31.3,13.15l0 0c-12.36,-5.05 -18.21,-19.12 -13.25,-31.35l0 0c3.81,-9.56 13.14,-15.13 22.83,-14.91l0 0 253.03 -570.79 43.29 189.13 114.87 -279.5c-29.75,-12.15 -60.43,-17.97 -90.66,-18.16z"/>
   <path class="fil1" d="M977.9 127.44l110.09 47.07 -142.48 346.71 37.03 173.29 232.58 -534.58c-7.29,-6.53 -10.02,-17.2 -6.09,-26.79l0 0c5.08,-12.28 19.11,-18.18 31.33,-13.16l0 0c12.32,5.02 18.17,19.08 13.25,31.32l0 0c-3.86,9.52 -13.15,15.19 -22.89,14.9l0 0 -253.19 581.17 -43.07 -199.49 -114.91 279.49c30.23,12.3 61.36,18.17 92.14,18.17 83.96,0 164.11,-43.72 208.89,-117.71l0 0c6.6,-10.96 12.42,-22.51 17.4,-34.77l0 0 82.85 -204.56 14.19 -35.15 2.37 -5.8 73.74 -182.06 111.55 43.48 -133.34 -308.96 -311.44 127.44z"/>
   <path class="fil2" d="M173.74 408.21c0,-32.4 -21.86,-58.9 -58.9,-58.9 -36.99,0 -58.89,26.5 -58.89,58.9 0,32.39 23.99,58.89 58.89,58.89 34.9,0 58.9,-26.5 58.9,-58.89zm-173.74 190.12l0 -294.02 47.95 0 3.39 28.6c15.96,-23.14 43.74,-33.24 67.29,-33.24 63.94,0 106.39,47.54 106.39,108.53 0,60.58 -38.24,108.53 -104.74,108.53 -21.85,0 -54.24,-6.73 -68.95,-29.44l0 111.04 -51.35 0z"/>
   <path class="fil2" d="M302.87 407.79c0,39.54 27.35,63.09 61.41,63.09 80.78,0 80.78,-125.78 0,-125.78 -34.07,0 -61.41,23.14 -61.41,62.69zm124.49 -103.48l49.24 0 0 207.38 -48.39 0 -2.5 -30.29c-11.8,24.39 -44.2,36.18 -67.31,36.6 -61.42,0.44 -106.84,-37.41 -106.84,-110.2 0,-71.5 47.5,-108.93 108.09,-108.53 27.75,0 54.25,13.04 66.05,33.65l1.65 -28.6z"/>
   <polygon class="fil2" points="720.15,304.31 593.53,598.34 537.17,598.34 575.86,508.34 493.02,304.31 552.72,304.31 584.27,393.91 604.05,452.4 625.5,395.15 663.36,304.31 "/>
   <path class="fil2" d="M1335.68 704.45c-32.4,0 -60.17,-23.52 -60.17,-60.99 0,-36.12 27.77,-60.56 60.17,-60.56 32.8,0 58.87,23.15 58.87,60.56 0,36.22 -26.06,60.99 -58.87,60.99zm4.61 -169.53c-21.89,0 -55.98,11.79 -68.11,33.24l0 -114.8 -6.68 0 -44.69 112.06 0 181.93 47.97 0 3.4 -28.56c15.96,24.83 41.61,33.21 66.83,33.21 61.02,0 106.84,-40.37 106.84,-108.54 0,-71.47 -44.97,-108.53 -105.55,-108.53z"/>
   <path class="fil2" d="M1585.09 706.57c-34.08,0 -61.39,-23.56 -61.39,-63.1 0,-39.51 27.31,-62.65 61.39,-62.65 80.79,0 80.79,125.75 0,125.75zm63.1 -166.55l-1.7 28.57c-11.78,-20.61 -38.25,-33.65 -66,-33.65 -60.59,-0.4 -108.09,37.04 -108.09,108.53 0,72.76 45.38,110.65 106.85,110.23 23.14,-0.44 55.47,-12.19 67.25,-36.62l2.55 30.29 48.38 0 0 -207.35 -49.22 0z"/>
   <path class="fil2" d="M1888.77 687.23c-12.57,12.63 -29.01,17.22 -45.41,17.22 -31.95,0 -58.89,-21.01 -58.89,-60.56 0,-36.13 25.24,-61.4 59.74,-61.4 14.27,0 29.45,5.45 41.64,16.4l32.41 -34.06c-22.72,-22.3 -45.45,-30.72 -74.89,-30.72 -60.19,0 -110.2,36.17 -110.2,109.78 0,73.64 50.01,109.82 110.2,109.82 30.73,0 55.91,-9.25 79.9,-32.83l-34.5 -33.64z"/>
   <polygon class="fil2" points="2042.75,637.61 2127.3,542.97 2127.3,540.02 2065.89,540.02 1996.03,623.28 1996.03,453.34 1944.73,453.34 1944.73,747.37 1996.03,747.37 1996.03,653.58 2077.24,747.37 2139.09,747.37 2139.09,743.6 "/>
   <path class="fil2" d="M2147.02 478c-22.27,0 -40.36,-18.1 -40.36,-40.36 2.03,-53.43 78.69,-53.43 80.73,0 0,22.27 -18.09,40.36 -40.36,40.36zm0 -86.04c-25.21,0 -45.71,20.51 -45.71,45.68 2.3,60.55 89.11,60.55 91.42,0 0,-25.17 -20.49,-45.68 -45.71,-45.68z"/>
   <path class="fil2" d="M2173.53 423.65c-1.09,-0.37 -2.26,-0.04 -2.98,0.84l-9.38 11.72 -9.39 -11.72c-0.72,-0.88 -1.9,-1.22 -2.96,-0.84 -1.07,0.37 -1.8,1.38 -1.8,2.54l0 25.79c0.15,3.55 5.23,3.55 5.36,0l0 -18.17 6.7 8.37c0.99,1.33 3.15,1.33 4.17,0l6.72 -8.37 0 18.17c0.13,3.55 5.21,3.55 5.35,0l0 -25.79c0,-1.16 -0.71,-2.17 -1.8,-2.54z"/>
   <path class="fil2" d="M2139.86 423.49l-21.53 0c-3.55,0.14 -3.55,5.22 0,5.36l8.11 0 0 23.15c0.1,3.55 5.21,3.52 5.35,0l0 -23.15 8.07 0c3.55,-0.14 3.55,-5.22 0,-5.36z"/>
  </g>
 </g>
</svg>
