<?xml version="1.0" encoding="utf-8"?>
<!-- Generator: Adobe Illustrator 24.0.2, SVG Export Plug-In . SVG Version: 6.00 Build 0)  -->
<svg version="1.1" id="layer" xmlns="http://www.w3.org/2000/svg" xmlns:xlink="http://www.w3.org/1999/xlink" x="0px" y="0px"
	 viewBox="25 285 605 140" style="enable-background:new 25 285 605 140;" xml:space="preserve">
<style type="text/css">
	.st0{fill-rule:evenodd;clip-rule:evenodd;fill:#FFFFFF;}
	.st1{fill:#FFFFFF;}
</style>
<path class="st0" d="M123.4,314.5c-5.5-4.8-11.1-6.2-18.4-6.2c-8.6,0-20,3.8-20,14.8c0,10.8,10.7,14,19.6,14.7
	c6.7,0.4,9.4,1.7,9.4,5c0,3.5-4.1,5.8-8.6,5.7c-5.3-0.1-13-2.9-16.3-6.6l-5.8,8.4c6.9,7.2,14.4,8.5,21.9,8.5
	c13.5,0,20.4-7.2,20.4-15.6c0-12.6-11.3-14.6-20.3-15.2c-6.1-0.4-8.8-2.1-8.8-5.2c0-3,3.1-4.7,8.6-4.7c4.5,0,8.4,1.1,11.7,4.2
	L123.4,314.5z"/>
<path class="st0" d="M138.7,297.5v12.2h-8.8v10.1h8.8v20.5c0,11.8,6.7,17.7,17,17.3c3.6-0.1,6.3-0.7,9.7-2l-3.3-10
	c-1.7,0.9-3.8,1.4-5.7,1.4c-3.7,0-6.1-2.2-6.1-6.7v-20.5h13.2v-10.1h-13.1v-13.5L138.7,297.5z"/>
<path class="st0" d="M193.7,319c18.4,0,18.4,28.7,0,28.7c-7.8,0-14-5.4-14-14.4C179.6,324.2,185.9,319,193.7,319 M207.7,316.2
	c-2.7-4.7-8.7-7.7-15.1-7.7c-13.8-0.1-24.7,8.5-24.7,24.8c0,16.6,10.4,25.3,24.4,25.2c5.3-0.1,12.7-2.8,15.4-8.4l0.6,6.9h11.1v-47.4
	h-11.2L207.7,316.2z"/>
<path class="st0" d="M226.8,309.6V357h11.7v-25c0-8.7,5.7-12,11.8-12c3.8,0,6.1,1.1,8.5,3.1l5.3-10.2c-2.6-2.6-7.3-4.5-12.2-4.5
	c-4.8,0-9.7,0.9-13.4,6.7l-0.9-5.5H226.8z"/>
<path class="st0" d="M278.5,297.5v12.2h-8.8v10.1h8.8v20.5c0,11.8,6.7,17.7,17,17.3c3.6-0.1,6.3-0.7,9.7-2l-3.3-10
	c-1.7,0.9-3.8,1.4-5.7,1.4c-3.7,0-6.1-2.2-6.1-6.7v-20.5h13.2v-10.1h-13.1v-13.5L278.5,297.5z"/>
<path class="st0" d="M312,309.6v24.9c0,14.7,8.3,23.3,19.6,23.3c6.6,0,11.1-2.3,16.1-7.1l0.8,6.3H359v-47.4h-11.6v24.2
	c0,7.3-4.9,13.3-12.1,13.3c-7.5,0-11.4-5.5-11.4-12.7v-24.8L312,309.6L312,309.6z"/>
<path class="st0" d="M377.5,376.8v-25.4c3.4,5.2,10.8,6.7,15.8,6.7c15.2,0,23.9-11,23.9-24.8c0-13.9-9.7-24.8-24.3-24.8
	c-5.4,0-11.7,2.3-15.4,7.6l-0.8-6.5h-11v67.2L377.5,376.8L377.5,376.8z M392,346.8c-8,0-13.5-6-13.5-13.5c0-7.4,5-13.5,13.5-13.5
	s13.5,6.1,13.5,13.5C405.4,340.8,399.9,346.8,392,346.8"/>
<path class="st0" d="M422.5,296.3c0,9.1,13.8,9.1,13.8,0C436.4,287.2,422.5,287.2,422.5,296.3 M435.3,357h-11.7v-47.6h11.7V357z"/>
<path class="st0" d="M489.4,357v-24.9c0-14.9-8.9-23.3-20.1-23.3c-6,0-10.8,2.4-15.6,7.1l-0.8-6.4h-10.5V357H454v-24.2
	c0-7.2,4.9-13.3,12.1-13.3c7.5,0,11.4,5.5,11.4,12.7V357L489.4,357L489.4,357z"/>
<path class="st0" d="M535.1,289.8V316c-2.8-4.9-10.6-7.6-15.6-7.6c-13.8,0-24.1,8.5-24.1,24.8c0,15.6,10.5,24.8,24.4,24.8
	c5.8,0,11.6-1.9,15.3-7.6l0.8,6.5h11v-67.2h-11.8V289.8z M520.6,319.4c7.4,0,13.7,5.6,13.7,13.8c0,8.5-6.3,13.9-13.7,13.9
	c-7.5,0-13.5-5.7-13.5-13.9C507.2,324.7,513.1,319.4,520.6,319.4"/>
<path class="st0" d="M555.5,296.3c0,9.1,13.8,9.1,13.8,0S555.5,287.2,555.5,296.3"/>
<rect x="556.6" y="309.4" class="st0" width="11.7" height="47.6"/>
<path class="st0" d="M600.3,319c18.4,0,18.4,28.7,0,28.7c-7.8,0-14-5.4-14-14.4C586.3,324.2,592.6,319,600.3,319 M614.4,316.2
	c-2.7-4.7-8.7-7.7-15.1-7.7c-13.8-0.1-24.7,8.5-24.7,24.8c0,16.6,10.4,25.3,24.4,25.2c5.3-0.1,12.7-2.8,15.4-8.4l0.6,6.9h11v-47.4
	h-11.2L614.4,316.2z"/>
<rect x="512.4" y="364.3" class="st1" width="56" height="11.5"/>
<rect x="512.2" y="364.4" class="st1" width="11.4" height="56.1"/>
<rect x="467.8" y="409" class="st1" width="55.8" height="11.5"/>
<path class="st1" d="M53.9,301.7l-3,11.9h8.7l3-11.9h10.6l-2.9,12H76v9.2h-8l-3.7,14.5h6.3v9.3h-8.4l-2.6,10.8H48.8l2.6-10.8h-8.8
	L40,357.5H29.4l2.6-10.8h-6v-9.3h8.4l3.7-14.6h-6.6v-9.1h8.8l2.9-11.9h10.7V301.7z M48.2,322.2l-4,15.8h10l4-15.8H48.2z"/>
</svg>
